<svg xmlns="http://www.w3.org/2000/svg" viewBox="0 0 64 64" role="img" aria-labelledby="title">
  <title id="title">Mintravo</title>
  <defs>
    <linearGradient id="background" x1="7" y1="5" x2="57" y2="60" gradientUnits="userSpaceOnUse">
      <stop stop-color="#153E72"/>
      <stop offset="1" stop-color="#08182E"/>
    </linearGradient>
    <linearGradient id="hotel" x1="15" y1="28" x2="49" y2="52" gradientUnits="userSpaceOnUse">
      <stop stop-color="#2BC5E8"/>
      <stop offset="1" stop-color="#4E72F4"/>
    </linearGradient>
  </defs>
  <rect x="2" y="2" width="60" height="60" rx="17" fill="url(#background)"/>
  <rect x="3" y="3" width="58" height="58" rx="16" fill="none" stroke="#fff" stroke-opacity=".12" stroke-width="2"/>

  <!-- Hotel and stay -->
  <path d="M13 51V36.5a3.5 3.5 0 0 1 3.5-3.5H31v-5.5a3.5 3.5 0 0 1 3.5-3.5h13a3.5 3.5 0 0 1 3.5 3.5V51Z" fill="url(#hotel)"/>
  <path d="M19 39h5v5h-5zm0 8h5v4h-5zm18-8h5v5h-5zm0 8h5v4h-5zm0-16h5v5h-5z" fill="#fff" fill-opacity=".9"/>
  <path d="M10 51h44" stroke="#fff" stroke-width="3" stroke-linecap="round"/>

  <!-- Flight -->
  <g transform="translate(7 -1) scale(1.55)">
    <path d="m2.5 19.5 7-2L13 21l1.5-1-2-4 6-6c1-1 1-2.5 0-3.5s-2.5-1-3.5 0l-6 6-4-2-1 1.5 3.5 3.5-2 7Z" fill="#fff"/>
  </g>
  <circle cx="49" cy="14" r="4.5" fill="#FF714B"/>
</svg>
